<svg width="32" height="32" viewBox="0 0 32 32" fill="none" xmlns="http://www.w3.org/2000/svg">
<path d="M14.6813 32L15.2967 19.3407L11.0769 31.2967L8.61538 30.3297L14.0659 18.8132L5.62637 28.3077L3.69231 26.3736L13.1868 17.9341L1.67033 23.3846L0.703297 20.9231L12.6593 16.7033L0 17.3187V14.6813L12.6593 15.3846L0.703297 11.0769L1.67033 8.7033L13.1868 14.1538L3.69231 5.62637L5.62637 3.78022L14.0659 13.1868L8.61538 1.75824L11.0769 0.703295L15.2967 12.7473L14.6813 0H17.3187L16.6154 12.6593L20.9231 0.703295L23.2967 1.75824L17.8462 13.1868L26.3736 3.78022L28.2198 5.62637L18.8132 14.1538L30.2418 8.7033L31.2967 11.0769L19.2527 15.3846L32 14.6813V17.3187L19.2527 16.7033L31.2967 20.9231L30.2418 23.3846L18.8132 17.9341L28.2198 26.3736L26.3736 28.3077L17.8462 18.8132L23.2967 30.3297L20.9231 31.2967L16.6154 19.3407L17.3187 32H14.6813Z" fill="#FBADAD"/>
</svg>
